<svg width="512" height="512" viewBox="0 0 512 512" fill="none" xmlns="http://www.w3.org/2000/svg">
<rect width="512" height="512" fill="#F9F9F9"/>
<path d="M83.233 117.636L155.158 335.165H157.991L229.781 117.636H284.838L187.409 394H125.605L28.3111 117.636H83.233Z" fill="#FF978A"/>
<path d="M336.909 394H243.259V117.636H338.798C366.237 117.636 389.807 123.169 409.509 134.234C429.3 145.21 444.504 160.998 455.119 181.599C465.735 202.201 471.043 226.85 471.043 255.548C471.043 284.336 465.69 309.076 454.984 329.767C444.369 350.458 429.03 366.337 408.969 377.402C388.997 388.467 364.977 394 336.909 394ZM293.322 350.683H334.48C353.732 350.683 369.79 347.175 382.655 340.158C395.519 333.051 405.19 322.48 411.668 308.446C418.145 294.322 421.384 276.689 421.384 255.548C421.384 234.407 418.145 216.865 411.668 202.92C405.19 188.886 395.609 178.406 382.925 171.479C370.33 164.462 354.677 160.953 335.964 160.953H293.322V350.683Z" fill="#FF978A"/>
</svg>
